
	<svg xmlns="http://www.w3.org/2000/svg" xmlns:xlink="http://www.w3.org/1999/xlink" version="1.1" width="128" height="128" viewBox="0 0 100 100">


		<defs>
			<g id="background">
</g><mask id="mask">
<path fill="#FFFFFF" stroke="none" d=" M 82.2 82.15 Q 95.5 68.85 95.5 49.95 95.5 31.1 82.2 17.8 68.85 4.5 50 4.5 31.15 4.5 17.8 17.8 4.5 31.1 4.5 49.95 4.5 68.85 17.8 82.15 31.15 95.45 50 95.45 68.85 95.45 82.2 82.15 Z"/>
</mask>
			
	<linearGradient id="background-gradient" x1="0" y1="0" y2="1" x2="0" >
		<stop stop-color="#000000" offset="0%"/>
		<stop stop-color="#000000" offset="100%"/>
	</linearGradient>

			
			
			<g transform="scale(3.4246574447669085) translate(-0.4999980926513672 -0.39999961853027344)" id="picture"><path d="M29 26.5c-1.4 0-2 .6-2.7 1.1-.6.5-1 .9-2 .9s-1.5-.4-2-.9c-.6-.5-1.3-1.1-2.7-1.1-1.4 0-2 .6-2.7 1.1-.6.5-1 .9-2 .9s-1.5-.4-2-.9c-.6-.5-1.3-1.1-2.7-1.1s-2 .6-2.7 1.1c-.6.5-1 .9-2 .9s-1.5-.4-2-.9-1.1-1.1-2.5-1.1c-.3 0-.5.2-.5.5s.2.5.5.5c1 0 1.5.4 2 .9.6.5 1.3 1.1 2.7 1.1s2-.6 2.7-1.1c.6-.5 1-.9 2-.9s1.5.4 2 .9c.6.5 1.3 1.1 2.7 1.1 1.4 0 2-.6 2.7-1.1.6-.5 1-.9 2-.9s1.5.4 2 .9c.6.5 1.3 1.1 2.7 1.1 1.4 0 2-.6 2.7-1.1.6-.5 1-.9 2-.9.3 0 .5-.2.5-.5s-.4-.5-.7-.5zM8 3.5h4c.3 0 .5-.2.5-.5V1c0-.3-.2-.5-.5-.5H8c-.3 0-.5.2-.5.5v2c0 .3.2.5.5.5zm6 0h8c.3 0 .5-.2.5-.5V1c0-.3-.2-.5-.5-.5h-8c-.3 0-.5.2-.5.5v2c0 .3.2.5.5.5zm0 6h-3c-.3 0-.5.2-.5.5v2.3c0 .2.1.3.2.4.1.1.2.1.3.1h.1l3-.7c.2-.1.4-.3.4-.5V10c0-.3-.2-.5-.5-.5zm.5-4.5c0-.3-.2-.5-.5-.5h-3c-.3 0-.5.2-.5.5v3c0 .3.2.5.5.5h3c.3 0 .5-.2.5-.5V5zM24 9.5h-4c-.3 0-.5.2-.5.5v2.6c0 .2.2.4.4.5l4 .9h.1c.1 0 .2 0 .3-.1.1-.1.2-.2.2-.4V10c0-.3-.2-.5-.5-.5zM18.5 5c0-.3-.2-.5-.5-.5h-2c-.3 0-.5.2-.5.5v3c0 .3.2.5.5.5h2c.3 0 .5-.2.5-.5V5zM18 9.5h-2c-.3 0-.5.2-.5.5v1.7c0 .2.2.4.4.5l2 .5h.1c.1 0 .2 0 .3-.1.1-.1.2-.2.2-.4V10c0-.3-.2-.5-.5-.5zM19.5 5v3c0 .3.2.5.5.5h4c.3 0 .5-.2.5-.5V5c0-.3-.2-.5-.5-.5h-4c-.3 0-.5.2-.5.5zM6 14h.1l3-.7c.2-.1.4-.3.4-.5V10c0-.3-.2-.5-.5-.5H6c-.3 0-.5.2-.5.5v3.5c0 .2.1.3.2.4.1 0 .2.1.3.1zm0-5.5h3c.3 0 .5-.2.5-.5V5c0-.3-.2-.5-.5-.5H6c-.3 0-.5.2-.5.5v3c0 .3.2.5.5.5z M1 24.5c1 0 1.5.4 2 .9.6.5 1.3 1.1 2.7 1.1 1.4 0 2-.6 2.7-1.1l.2-.2c.1-.1.2-.2.3-.2.1 0 .1-.1.2-.1s.1-.1.2-.1.2-.1.3-.1c.1 0 .1 0 .2-.1.2 0 .4-.1.6-.1 1 0 1.5.4 2 .9.6.5 1.3 1.1 2.7 1.1 1.2 0 1.9-.5 2.4-.9.1-.1.2-.1.2-.2.6-.5 1-.9 2-.9.2 0 .4 0 .6.1.1 0 .1 0 .2.1.1 0 .2.1.3.1.1 0 .1.1.2.1s.1.1.2.1c.1.1.2.1.3.2l.2.2c.6.5 1.3 1.1 2.7 1.1 1.4 0 2-.6 2.7-1.1.6-.5 1-.9 2-.9.3 0 .5-.2.5-.5s-.2-.5-.5-.5c-1.4 0-2 .6-2.7 1.1-.6.5-1 .9-2 .9-.9 0-1.4-.4-1.9-.8l4-8.5c.1-.1.1-.3 0-.4l-.3-.3-11-2.5H15L4 15.5c-.1 0-.3.1-.3.3-.1.1-.1.3 0 .4l4 8.5c-.5.4-1 .8-1.9.8-1 0-1.5-.4-2-.9-.8-.5-1.5-1.1-2.8-1.1-.3 0-.5.2-.5.5s.2.5.5.5zm14-9c.3 0 .5.2.5.5v9.4c-.2 0-.3.1-.5.1s-.3 0-.5-.1V16c0-.3.2-.5.5-.5z"/></g>
			
	<linearGradient id="picture-gradient" x1="0" y1="0" y2="1" x2="0" >
		<stop stop-color="#000000" offset="0%"/>
		<stop stop-color="#000000" offset="100%"/>
	</linearGradient>

		</defs>

		

			<use xlink:href="#background" fill="url(#background-gradient)" />

		

			<g mask="url(#mask)">
				<g transform="
				        translate(
                                50 50
)
                            translate(0 0)  scale(0.6500000000000001)  
                            translate(
                                -50 -50
)">
						<use xlink:href="#picture" fill="url(#picture-gradient)"  />
				</g>
			</g>

		



	</svg>
