
	<svg xmlns="http://www.w3.org/2000/svg" xmlns:xlink="http://www.w3.org/1999/xlink" version="1.1" width="128" height="128" viewBox="0 0 100 100">


		<defs>
			<g id="background">

</g><mask id="mask">
<path fill="#FFFFFF" stroke="none" d=" M 82.2 82.15 Q 95.5 68.85 95.5 49.95 95.5 31.1 82.2 17.8 68.85 4.5 50 4.5 31.15 4.5 17.8 17.8 4.5 31.1 4.5 49.95 4.5 68.85 17.8 82.15 31.15 95.45 50 95.45 68.85 95.45 82.2 82.15 Z"/>
</mask>
			
	<linearGradient id="background-gradient" x1="0" y1="0" y2="1" x2="0" >
		<stop stop-color="#000000" offset="0%"/>
		<stop stop-color="#000000" offset="100%"/>
	</linearGradient>

			
			
			<g transform="scale(3.125) translate(0 2.0999999940395355)" id="picture"><path d="M32 4.9v-.4l-.1-.1c0-.1-.1-.2-.1-.2L27.9.3c-.4-.4-1-.4-1.4 0s-.4 1 0 1.4L28.7 4c-.9 0-2.3.1-2.3.2h-.1c-2.2.5-4.2 1.6-5.9 3.3l-3.9 4c-.4.4-.4 1 0 1.4.2.2.4.3.7.3.3 0 .5-.1.7-.3l3.8-4c1.4-1.4 3-2.3 4.8-2.7.2 0 1.1-.1 1.8-.1l-2 2c-.4.4-.4 1 0 1.4.2.2.5.3.7.3.3 0 .5-.1.7-.3L31.2 6c.5-.2.8-.6.8-1.1 0 .1 0 .1 0 0zM12.5 15.3l-.7.5-3.5 3.6c-1 1-2.2 1.5-3.4 1.5H1c-.6 0-1 .4-1 1s.4 1 1 1h3.9c1.7 0 3.5-.8 4.8-2.1l3.4-3.5.6-.5c.4-.3.5-1 .2-1.4s-1-.4-1.4-.1z M31.3 22.1l-3.5-3.5c-.4-.4-1-.4-1.4 0s-.4 1 0 1.4l2 2c-.8 0-2-.1-2.3-.1-1.7-.4-3.3-1.3-4.7-2.7L13 10.7 9.7 7.2c-1.3-1.3-3.1-2-4.8-2.1L3.4 5H1c-.6 0-1 .4-1 1s.4 1 1 1h2.3l1.5.1h.1c1.2 0 2.5.5 3.4 1.5l11.8 12c1.7 1.7 3.6 2.8 5.7 3.2h.2c.1 0 1.9.1 2.8.1l-2.3 2.3c-.4.4-.4 1 0 1.4.2.2.5.3.7.3.3 0 .5-.1.7-.3l3.9-3.9c.1-.1.1-.1.1-.2s.1-.1.1-.2v-.6c0-.1-.3-.5-.7-.6z"/></g>
			
	<linearGradient id="picture-gradient" x1="0" y1="0" y2="1" x2="0" >
		<stop stop-color="#000000" offset="0%"/>
		<stop stop-color="#000000" offset="100%"/>
	</linearGradient>

		</defs>

		

			<use xlink:href="#background" fill="url(#background-gradient)" />

		

			<g mask="url(#mask)">
				<g transform="
				        translate(
                                50 50
)
                            translate(0 0)  scale(0.5)  
                            translate(
                                -50 -50
)">
						<use xlink:href="#picture" fill="url(#picture-gradient)"  />
				</g>
			</g>

		



	</svg>
